<mxfile host="app.diagrams.net" modified="2024-07-04T09:03:56.375Z" agent="Mozilla/5.0 (Windows NT 10.0; Win64; x64) AppleWebKit/537.36 (KHTML, like Gecko) Chrome/126.0.0.0 Safari/537.36" etag="SLPTzmjGIt0i0xQ5G2uy" version="24.6.4" type="device">
  <diagram name="Страница — 1" id="i6Z3vcPOwIsLdpQ_hNey">
    <mxGraphModel dx="2074" dy="1144" grid="1" gridSize="10" guides="1" tooltips="1" connect="1" arrows="1" fold="1" page="1" pageScale="1" pageWidth="1169" pageHeight="827" math="0" shadow="0">
      <root>
        <mxCell id="0" />
        <mxCell id="1" parent="0" />
        <mxCell id="KYN2oqyWsLOFRDnOUmyA-17" value="" style="whiteSpace=wrap;html=1;aspect=fixed;dashed=1;dashPattern=12 12;" vertex="1" parent="1">
          <mxGeometry x="40" y="40" width="620" height="620" as="geometry" />
        </mxCell>
        <mxCell id="KYN2oqyWsLOFRDnOUmyA-1" value="&lt;font style=&quot;font-size: 15px;&quot;&gt;API&lt;/font&gt;" style="rounded=0;whiteSpace=wrap;html=1;" vertex="1" parent="1">
          <mxGeometry x="240" y="80" width="120" height="80" as="geometry" />
        </mxCell>
        <mxCell id="KYN2oqyWsLOFRDnOUmyA-3" value="&lt;font style=&quot;font-size: 15px;&quot;&gt;Core services&lt;/font&gt;" style="rounded=0;whiteSpace=wrap;html=1;" vertex="1" parent="1">
          <mxGeometry x="240" y="190" width="120" height="80" as="geometry" />
        </mxCell>
        <mxCell id="KYN2oqyWsLOFRDnOUmyA-4" value="&lt;font style=&quot;font-size: 15px;&quot;&gt;Archiver api&lt;/font&gt;" style="rounded=0;whiteSpace=wrap;html=1;" vertex="1" parent="1">
          <mxGeometry x="90" y="190" width="120" height="80" as="geometry" />
        </mxCell>
        <mxCell id="KYN2oqyWsLOFRDnOUmyA-5" value="&lt;font style=&quot;font-size: 15px;&quot;&gt;Repository&lt;/font&gt;" style="rounded=0;whiteSpace=wrap;html=1;" vertex="1" parent="1">
          <mxGeometry x="240" y="300" width="120" height="80" as="geometry" />
        </mxCell>
        <mxCell id="KYN2oqyWsLOFRDnOUmyA-6" value="&lt;font style=&quot;font-size: 15px;&quot;&gt;Core data storage&lt;/font&gt;" style="shape=cylinder3;whiteSpace=wrap;html=1;boundedLbl=1;backgroundOutline=1;size=15;" vertex="1" parent="1">
          <mxGeometry x="260" y="410" width="80" height="120" as="geometry" />
        </mxCell>
        <mxCell id="KYN2oqyWsLOFRDnOUmyA-7" value="" style="endArrow=classic;startArrow=classic;html=1;rounded=0;entryX=0.5;entryY=1;entryDx=0;entryDy=0;exitX=0.5;exitY=0;exitDx=0;exitDy=0;" edge="1" parent="1" source="KYN2oqyWsLOFRDnOUmyA-3" target="KYN2oqyWsLOFRDnOUmyA-1">
          <mxGeometry width="50" height="50" relative="1" as="geometry">
            <mxPoint x="560" y="500" as="sourcePoint" />
            <mxPoint x="610" y="450" as="targetPoint" />
          </mxGeometry>
        </mxCell>
        <mxCell id="KYN2oqyWsLOFRDnOUmyA-8" value="" style="endArrow=classic;startArrow=classic;html=1;rounded=0;entryX=1;entryY=0.5;entryDx=0;entryDy=0;exitX=0;exitY=0.5;exitDx=0;exitDy=0;" edge="1" parent="1" source="KYN2oqyWsLOFRDnOUmyA-3" target="KYN2oqyWsLOFRDnOUmyA-4">
          <mxGeometry width="50" height="50" relative="1" as="geometry">
            <mxPoint x="310" y="200" as="sourcePoint" />
            <mxPoint x="310" y="170" as="targetPoint" />
          </mxGeometry>
        </mxCell>
        <mxCell id="KYN2oqyWsLOFRDnOUmyA-9" value="" style="endArrow=classic;startArrow=classic;html=1;rounded=0;entryX=0.5;entryY=1;entryDx=0;entryDy=0;exitX=0.5;exitY=0;exitDx=0;exitDy=0;" edge="1" parent="1" source="KYN2oqyWsLOFRDnOUmyA-5" target="KYN2oqyWsLOFRDnOUmyA-3">
          <mxGeometry width="50" height="50" relative="1" as="geometry">
            <mxPoint x="320" y="210" as="sourcePoint" />
            <mxPoint x="320" y="180" as="targetPoint" />
          </mxGeometry>
        </mxCell>
        <mxCell id="KYN2oqyWsLOFRDnOUmyA-10" value="" style="endArrow=classic;startArrow=classic;html=1;rounded=0;entryX=0.5;entryY=1;entryDx=0;entryDy=0;exitX=0.5;exitY=0;exitDx=0;exitDy=0;exitPerimeter=0;" edge="1" parent="1" source="KYN2oqyWsLOFRDnOUmyA-6" target="KYN2oqyWsLOFRDnOUmyA-5">
          <mxGeometry width="50" height="50" relative="1" as="geometry">
            <mxPoint x="330" y="220" as="sourcePoint" />
            <mxPoint x="330" y="190" as="targetPoint" />
          </mxGeometry>
        </mxCell>
        <mxCell id="KYN2oqyWsLOFRDnOUmyA-11" value="&lt;font style=&quot;font-size: 15px;&quot;&gt;Archiver service&lt;/font&gt;" style="rounded=0;whiteSpace=wrap;html=1;" vertex="1" parent="1">
          <mxGeometry x="90" y="300" width="120" height="80" as="geometry" />
        </mxCell>
        <mxCell id="KYN2oqyWsLOFRDnOUmyA-12" value="&lt;font style=&quot;font-size: 15px; font-weight: normal;&quot;&gt;Archiver repository&lt;/font&gt;" style="rounded=0;whiteSpace=wrap;html=1;fontStyle=1" vertex="1" parent="1">
          <mxGeometry x="90" y="410" width="120" height="80" as="geometry" />
        </mxCell>
        <mxCell id="KYN2oqyWsLOFRDnOUmyA-13" value="&lt;font style=&quot;font-size: 15px;&quot;&gt;Archiver data storage&lt;/font&gt;" style="shape=cylinder3;whiteSpace=wrap;html=1;boundedLbl=1;backgroundOutline=1;size=15;" vertex="1" parent="1">
          <mxGeometry x="110" y="520" width="80" height="120" as="geometry" />
        </mxCell>
        <mxCell id="KYN2oqyWsLOFRDnOUmyA-14" value="" style="endArrow=classic;startArrow=classic;html=1;rounded=0;entryX=0.5;entryY=1;entryDx=0;entryDy=0;exitX=0.5;exitY=0;exitDx=0;exitDy=0;" edge="1" parent="1" source="KYN2oqyWsLOFRDnOUmyA-11" target="KYN2oqyWsLOFRDnOUmyA-4">
          <mxGeometry width="50" height="50" relative="1" as="geometry">
            <mxPoint x="310" y="420" as="sourcePoint" />
            <mxPoint x="310" y="390" as="targetPoint" />
          </mxGeometry>
        </mxCell>
        <mxCell id="KYN2oqyWsLOFRDnOUmyA-15" value="" style="endArrow=classic;startArrow=classic;html=1;rounded=0;entryX=0.5;entryY=1;entryDx=0;entryDy=0;" edge="1" parent="1" source="KYN2oqyWsLOFRDnOUmyA-12" target="KYN2oqyWsLOFRDnOUmyA-11">
          <mxGeometry width="50" height="50" relative="1" as="geometry">
            <mxPoint x="320" y="430" as="sourcePoint" />
            <mxPoint x="320" y="400" as="targetPoint" />
          </mxGeometry>
        </mxCell>
        <mxCell id="KYN2oqyWsLOFRDnOUmyA-16" value="" style="endArrow=classic;startArrow=classic;html=1;rounded=0;entryX=0.5;entryY=1;entryDx=0;entryDy=0;exitX=0.5;exitY=0;exitDx=0;exitDy=0;exitPerimeter=0;" edge="1" parent="1" source="KYN2oqyWsLOFRDnOUmyA-13" target="KYN2oqyWsLOFRDnOUmyA-12">
          <mxGeometry width="50" height="50" relative="1" as="geometry">
            <mxPoint x="330" y="440" as="sourcePoint" />
            <mxPoint x="330" y="410" as="targetPoint" />
          </mxGeometry>
        </mxCell>
        <mxCell id="KYN2oqyWsLOFRDnOUmyA-18" value="&lt;span style=&quot;font-size: 20px;&quot;&gt;Artifact Processor module&lt;/span&gt;&lt;div&gt;&lt;span style=&quot;font-size: 20px;&quot;&gt;base structure&lt;/span&gt;&lt;/div&gt;" style="text;html=1;align=left;verticalAlign=middle;whiteSpace=wrap;rounded=0;" vertex="1" parent="1">
          <mxGeometry x="430" y="90" width="220" height="60" as="geometry" />
        </mxCell>
      </root>
    </mxGraphModel>
  </diagram>
</mxfile>
